<svg xmlns="http://www.w3.org/2000/svg" id="f6f826bc-27f5-45a9-97fd-cdcde604517c" data-name="Layer 1" viewBox="0 0 18.08 18.1"><defs><style>.b637dd27-72a3-47d4-af9b-b696e20aad55{stroke:#000;stroke-miterlimit:10;stroke-width:.5px}</style></defs><path d="M6.27,5.92l.14-.19a5.21,5.21,0,0,1,1.24-1,1.45,1.45,0,0,1,1.46-.18l.07,0,.06.06a3.73,3.73,0,0,1,.69,1.55,2.09,2.09,0,0,1-.11,1.61l0,0a2.68,2.68,0,0,1-1.11.64h0a.68.68,0,0,0-.49.67,3.58,3.58,0,0,0,.53,1.75h0A3.65,3.65,0,0,0,10,12.26a.68.68,0,0,0,.83-.09h0a2.8,2.8,0,0,1,1.1-.64h0a2,2,0,0,1,1.44.71,3.75,3.75,0,0,1,1,1.37.24.24,0,0,1,0,.08.59.59,0,0,1,0,.14c0,.46-.39.85-.91,1.14a5,5,0,0,1-1.5.56,1.71,1.71,0,0,1-.36,0A4.54,4.54,0,0,1,9,14.71,8.1,8.1,0,0,1,6.6,12a7.72,7.72,0,0,1-1-3.5,4.4,4.4,0,0,1,.7-2.55Zm.4,0a.79.79,0,0,0-.12.15,4,4,0,0,0-.64,2.35,7.34,7.34,0,0,0,1,3.35,7.93,7.93,0,0,0,2.34,2.62,4.29,4.29,0,0,0,2.42.8,2.39,2.39,0,0,0,.31,0,5,5,0,0,0,1.39-.52c.42-.24.75-.54.74-.85a.25.25,0,0,0,0-.08.43.43,0,0,1,0-.05,3.28,3.28,0,0,0-.91-1.21c-.42-.39-.88-.68-1.15-.63h0a2.5,2.5,0,0,0-1,.54,1,1,0,0,1-1.24.15A4,4,0,0,1,8.42,11.1h0a4.12,4.12,0,0,1-.57-1.92,1,1,0,0,1,.75-1h0a2.34,2.34,0,0,0,1-.55h0a1.85,1.85,0,0,0,0-1.31A3.47,3.47,0,0,0,9,4.91l0,0,0,0c-.25-.17-.68,0-1.1.19A4.5,4.5,0,0,0,6.67,6Z" class="b637dd27-72a3-47d4-af9b-b696e20aad55" transform="translate(-0.96 -0.95)"/><path d="M10,19.05a9.05,9.05,0,1,1,9-9A9.06,9.06,0,0,1,10,19.05Zm0-17.2A8.15,8.15,0,1,0,18.14,10,8.16,8.16,0,0,0,10,1.85Z" transform="translate(-0.96 -0.95)"/></svg>