<svg id="f1b9dce7-6ca8-49f6-bb43-59079b497aeb" data-name="Layer 1" xmlns="http://www.w3.org/2000/svg" viewBox="0 0 18.08 18.1"><path d="M14.12,12.21a.29.29,0,0,1,0,.41.28.28,0,0,1-.22.1.32.32,0,0,1-.2-.08L10.84,10l-1,.65a.31.31,0,0,1-.34,0l-.73-.52-2.74,2.5a.32.32,0,0,1-.2.08.28.28,0,0,1-.22-.1.29.29,0,0,1,0-.41L8.31,9.79,4.62,7.18a1.39,1.39,0,0,0-.12.57v4.5a1.43,1.43,0,0,0,1.42,1.42h8.16a1.43,1.43,0,0,0,1.42-1.42V7.75A1.45,1.45,0,0,0,15.29,7L11.34,9.67Z" transform="translate(-0.96 -0.95)"/><path d="M9,9.52l.76.53,5.16-3.47a1.35,1.35,0,0,0-.79-.25H5.92A1.39,1.39,0,0,0,5,6.7L9,9.52Z" transform="translate(-0.96 -0.95)"/><path d="M10,19.05a9.05,9.05,0,1,1,9-9A9.06,9.06,0,0,1,10,19.05Zm0-17.2A8.15,8.15,0,1,0,18.14,10,8.16,8.16,0,0,0,10,1.85Z" transform="translate(-0.96 -0.95)"/></svg>