<svg xmlns="http://www.w3.org/2000/svg" id="a186c61c-7fdf-4803-b2be-2bb1711efa71" data-name="Layer 1" viewBox="0 0 17.85 17.87"><defs><style>.f2b65b81-93e1-45c5-8e87-e76531d9ce36{fill-rule:evenodd}</style></defs><path d="M10,18.93A8.93,8.93,0,1,1,18.92,10,8.93,8.93,0,0,1,10,18.93ZM10,2A8.05,8.05,0,1,0,18,10,8.06,8.06,0,0,0,10,2Z" transform="translate(-1.08 -1.07)"/><path d="M14,11.94a2,2,0,0,1-2,2H8.07a2,2,0,0,1-2-2V8.06a2,2,0,0,1,2-2h3.86a2,2,0,0,1,2,2Zm.91-3.88a2.94,2.94,0,0,0-2.94-2.94H8.07A2.94,2.94,0,0,0,5.13,8.06v3.88a2.94,2.94,0,0,0,2.94,2.94h3.86a2.94,2.94,0,0,0,2.94-2.94ZM10,11.6a1.54,1.54,0,1,1,1.54-1.53A1.53,1.53,0,0,1,10,11.6Zm0-3.95a2.41,2.41,0,1,0,2.42,2.42A2.42,2.42,0,0,0,10,7.65Zm2.56-.73a.58.58,0,1,0,0,1.15.58.58,0,0,0,0-1.15Z" class="f2b65b81-93e1-45c5-8e87-e76531d9ce36" transform="translate(-1.08 -1.07)"/></svg>