<svg id="bc82f59f-bdb9-4244-9f17-b04cc3aa69b4" data-name="Layer 1" xmlns="http://www.w3.org/2000/svg" viewBox="0 0 18.98 19"><defs><style>.e00f8b29-403f-49ff-8333-7ba1d1f65b42{fill-rule:evenodd;}</style></defs><path d="M10,19.5A9.5,9.5,0,1,1,19.49,10,9.51,9.51,0,0,1,10,19.5ZM10,1.44A8.56,8.56,0,1,0,18.55,10,8.57,8.57,0,0,0,10,1.44Z" transform="translate(-0.51 -0.5)"/><path class="e00f8b29-403f-49ff-8333-7ba1d1f65b42" d="M5.19,13a5.61,5.61,0,0,0,8.63-5,4.17,4.17,0,0,0,1-1,4.37,4.37,0,0,1-1.14.31,1.88,1.88,0,0,0,.87-1.1,3.57,3.57,0,0,1-1.25.48,2,2,0,0,0-1.44-.62A2,2,0,0,0,9.93,8.51a5.65,5.65,0,0,1-4.07-2,2,2,0,0,0,.62,2.63,2,2,0,0,1-.9-.25,2,2,0,0,0,1.58,2,1.87,1.87,0,0,1-.88,0A1.93,1.93,0,0,0,8.12,12.2,4,4,0,0,1,5.19,13Z" transform="translate(-0.51 -0.5)"/></svg>