<svg id="b99748f3-1750-4533-8e44-76bf65dcd42b" data-name="Layer 1" xmlns="http://www.w3.org/2000/svg" viewBox="0 0 18.98 19"><defs><style>.e8ac912b-5036-40e8-8e9e-80d2aec6118a{fill-rule:evenodd;}</style></defs><path d="M10,19.5A9.5,9.5,0,1,1,19.49,10,9.51,9.51,0,0,1,10,19.5ZM10,1.44A8.56,8.56,0,1,0,18.55,10,8.57,8.57,0,0,0,10,1.44Z" transform="translate(-0.51 -0.5)"/><path class="e8ac912b-5036-40e8-8e9e-80d2aec6118a" d="M8.63,15.45h2.19V10h1.53l.16-1.84H10.82v-1c0-.43.09-.6.51-.6h1.18V4.55H11c-1.64,0-2.36.71-2.36,2.1V8.11H7.49V10H8.63Z" transform="translate(-0.51 -0.5)"/></svg>