<?xml version="1.0" encoding="UTF-8" standalone="no"?>
<svg
   xmlns:dc="http://purl.org/dc/elements/1.1/"
   xmlns:cc="http://creativecommons.org/ns#"
   xmlns:rdf="http://www.w3.org/1999/02/22-rdf-syntax-ns#"
   xmlns:svg="http://www.w3.org/2000/svg"
   xmlns="http://www.w3.org/2000/svg"
   viewBox="0 0 2560 266.66666"
   height="266.66666"
   width="2560"
   xml:space="preserve"
   id="svg2"
   version="1.1"><metadata
     id="metadata8"><rdf:RDF><cc:Work
         rdf:about=""><dc:format>image/svg+xml</dc:format><dc:type
           rdf:resource="http://purl.org/dc/dcmitype/StillImage" /></cc:Work></rdf:RDF></metadata><defs
     id="defs6"><clipPath
       id="clipPath18"
       clipPathUnits="userSpaceOnUse"><path
         id="path16"
         d="M 0,200 H 1920 V 0 H 0 Z" /></clipPath><clipPath
       id="clipPath26"
       clipPathUnits="userSpaceOnUse"><path
         id="path24"
         d="M 23.98,161.39 H 1889.05 V 37.95 H 23.98 Z" /></clipPath></defs><g
     transform="matrix(1.3333333,0,0,-1.3333333,0,266.66667)"
     id="g10"><g
       id="g12"><g
         clip-path="url(#clipPath18)"
         id="g14"><g
           id="g20"><g
             id="g22" /><g
             id="g154"><g
               id="g152"
               clip-path="url(#clipPath26)"><g
                 id="g30"
                 transform="translate(1885.8701,43.71)"><path
                   id="path28"
                   style="fill:#d10000;fill-opacity:1;fill-rule:nonzero;stroke:none"
                   d="m 0,0 v 62.93 h -50.96 v -19.1 h 28.66 v -7.28 l -0.6,-0.76 c -6.98,-9.25 -15.77,-14.86 -27.75,-14.86 -19.411,0 -35.18,15.77 -35.18,35.18 0,19.41 15.769,35.18 35.18,35.18 9.7,0 19.26,-3.94 25.78,-11.22 l 19.86,13.34 c -11.37,13.2 -28.2,21.08 -45.64,21.08 -32.3,0 -59.75,-25.78 -59.75,-58.38 0,-32.6 27.45,-58.38 59.75,-58.38 9.4,0 23.96,3.03 30.33,16.68 h 2.57 L -17.75,0 Z M 3.18,66.12 V -3.18 H -20.93 V 7.58 c -6.37,-9.4 -18.8,-13.04 -29.72,-13.04 -33.97,0 -62.93,27.15 -62.93,61.57 0,34.42 28.96,61.57 62.93,61.57 19.56,0 38.36,-9.25 50.19,-24.72 V 92.81 L -25.33,75.98 h -0.15 c -6.22,7.73 -15.32,12.13 -25.17,12.13 -17.74,0 -32,-14.26 -32,-32 0,-17.89 14.1,-32 32,-32 10.16,0 19.41,5.01 25.17,13.35 v 3.18 h -28.66 v 25.48 z" /></g><g
                 id="g34"
                 transform="translate(1885.8701,106.6401)"><path
                   id="path32"
                   style="fill:#d10000;fill-opacity:1;fill-rule:nonzero;stroke:none"
                   d="m 0,0 v -62.93 h -17.75 v 14.41 h -2.57 c -6.37,-13.65 -20.93,-16.68 -30.33,-16.68 -32.3,0 -59.75,25.78 -59.75,58.38 0,32.6 27.45,58.38 59.75,58.38 17.44,0 34.27,-7.88 45.64,-21.08 L -24.87,17.14 c -6.52,7.28 -16.08,11.22 -25.78,11.22 -19.411,0 -35.18,-15.77 -35.18,-35.18 0,-19.41 15.769,-35.18 35.18,-35.18 11.98,0 20.77,5.61 27.75,14.86 l 0.6,0.76 v 7.28 H -50.96 V 0 Z" /></g><g
                 id="g38"
                 transform="translate(1725.4297,43.71)"><path
                   id="path36"
                   style="fill:#d10000;fill-opacity:1;fill-rule:nonzero;stroke:none"
                   d="m 0,0 -24.27,33.97 3.34,1.52 c 14.56,6.82 21.531,20.92 21.531,36.54 0,25.48 -16.221,40.19 -41.241,40.19 H -95.39 V 0 h 24.12 v 31.7 h 20.01 L -28.81,0 Z M -19.56,32.76 6.21,-3.18 H -30.479 L -52.93,28.51 H -68.09 V -3.18 H -98.569 V 115.4 H -40.64 C -13.8,115.4 3.79,99.18 3.79,72.03 3.79,55.2 -3.79,39.88 -19.56,32.76" /></g><g
                 id="g42"
                 transform="translate(1702.8301,115.4399)"><path
                   id="path40"
                   style="fill:#d10000;fill-opacity:1;fill-rule:nonzero;stroke:none"
                   d="m 0,0 c 0,12.43 -7.58,18.95 -19.71,18.95 h -28.96 v -37.6 h 28.96 C -8.03,-18.65 0,-11.98 0,0 M -1.67,-37.76 22.6,-71.73 H -6.21 l -22.45,31.7 h -20.01 v -31.7 H -72.79 V 40.49 h 54.75 C 6.979,40.49 23.2,25.78 23.2,0.3 23.2,-15.32 16.229,-29.42 1.67,-36.24 Z" /></g><g
                 id="g46"
                 transform="translate(1699.6504,115.4399)"><path
                   id="path44"
                   style="fill:#d10000;fill-opacity:1;fill-rule:nonzero;stroke:none"
                   d="M 0,0 C 0,10.61 -6.221,15.77 -16.53,15.77 H -42.311 V -15.47 H -16.53 C -6.67,-15.47 0,-10.16 0,0 M -16.53,18.95 C -4.4,18.95 3.18,12.43 3.18,0 c 0,-11.98 -8.031,-18.65 -19.71,-18.65 h -28.96 v 37.6 z" /></g><g
                 id="g50"
                 transform="translate(1576.5098,99.8198)"><path
                   id="path48"
                   style="fill:#d10000;fill-opacity:1;fill-rule:nonzero;stroke:none"
                   d="m 0,0 c 0,32.75 -27.45,58.38 -59.75,58.38 -31.99,0 -59.74,-25.93 -59.74,-58.38 0,-32.45 27.75,-58.379 59.74,-58.379 C -27.45,-58.379 0,-32.75 0,0 M -59.75,61.57 C -25.63,61.57 3.19,34.42 3.19,0 c 0,-34.419 -28.82,-61.57 -62.94,-61.57 -33.96,0 -62.93,27.3 -62.93,61.57 0,34.27 28.97,61.57 62.93,61.57" /></g><g
                 id="g54"
                 transform="translate(1517.5195,64.6396)"><path
                   id="path52"
                   style="fill:#d10000;fill-opacity:1;fill-rule:nonzero;stroke:none"
                   d="M 0,0 C 19.41,0 34.431,16.23 34.431,35.331 34.431,54.89 18.811,70.36 -0.76,70.36 -20.17,70.36 -35.939,54.59 -35.939,35.18 -35.939,15.011 -19.859,0 0,0 m -0.76,93.561 c 32.3,0 59.75,-25.631 59.75,-58.381 0,-32.749 -27.45,-58.379 -59.75,-58.379 -31.99,0 -59.74,25.929 -59.74,58.379 0,32.45 27.75,58.381 59.74,58.381" /></g><g
                 id="g58"
                 transform="translate(1548.7598,99.8198)"><path
                   id="path56"
                   style="fill:#d10000;fill-opacity:1;fill-rule:nonzero;stroke:none"
                   d="m 0,0 c 0,17.89 -14.1,32 -32,32 -17.74,0 -31.99,-14.26 -31.99,-32 0,-17.74 14.25,-32 31.99,-32 17.9,0 32,14.11 32,32 m 3.19,0.15 c 0,-19.1 -15.02,-35.33 -34.43,-35.33 -19.86,0 -35.94,15.011 -35.94,35.18 0,19.41 15.77,35.18 35.18,35.18 19.57,0 35.19,-15.47 35.19,-35.03" /></g><g
                 id="g62"
                 transform="translate(1409.25,57.21)"><path
                   id="path60"
                   style="fill:#d10000;fill-opacity:1;fill-rule:nonzero;stroke:none"
                   d="m 0,0 c 0,8.79 -7.28,16.07 -16.08,16.07 -8.79,0 -16.07,-7.28 -16.07,-16.07 0,-8.8 7.28,-16.08 16.07,-16.08 C -7.28,-16.08 0,-8.8 0,0 M -16.08,19.26 C -5.46,19.26 3.18,10.61 3.18,0 c 0,-10.62 -8.64,-19.26 -19.26,-19.26 -10.61,0 -19.25,8.64 -19.25,19.26 0,10.61 8.64,19.26 19.25,19.26" /></g><g
                 id="g66"
                 transform="translate(1393.1699,73.2803)"><path
                   id="path64"
                   style="fill:#d10000;fill-opacity:1;fill-rule:nonzero;stroke:none"
                   d="m 0,0 c 8.8,0 16.08,-7.28 16.08,-16.07 0,-8.8 -7.28,-16.08 -16.08,-16.08 -8.79,0 -16.07,7.28 -16.07,16.08 C -16.07,-7.28 -8.79,0 0,0" /></g><g
                 id="g70"
                 transform="translate(1329.4805,43.71)"><path
                   id="path68"
                   style="fill:#ffffff;fill-opacity:1;fill-rule:nonzero;stroke:none"
                   d="m 0,0 -45.341,112.22 h -25.93 L -116.61,0 h 26.38 l 6.53,17.29 h 50.8 L -26.381,0 Z M -43.061,115.4 4.699,-3.18 H -28.66 l -6.521,17.29 h -46.25 L -87.95,-3.18 h -33.511 l 48.07,118.43 v 0.15 z" /></g><g
                 id="g74"
                 transform="translate(1288.54,82.3799)"><path
                   id="path72"
                   style="fill:#ffffff;fill-opacity:1;fill-rule:nonzero;stroke:none"
                   d="M 0,0 -17.29,46.4 -34.73,0 Z M -4.4,73.55 40.94,-38.67 H 14.56 l -6.52,17.29 h -50.8 l -6.53,-17.29 h -26.38 l 45.34,112.22 z" /></g><g
                 id="g78"
                 transform="translate(1283.9902,85.5703)"><path
                   id="path76"
                   style="fill:#ffffff;fill-opacity:1;fill-rule:nonzero;stroke:none"
                   d="M 0,0 -12.74,34.12 -25.63,0 Z M -12.74,43.209 4.55,-3.19 h -34.731 z" /></g><g
                 id="g82"
                 transform="translate(1168.7402,92.3896)"><path
                   id="path80"
                   style="fill:#ffffff;fill-opacity:1;fill-rule:nonzero;stroke:none"
                   d="M 0,0 V 63.541 H -24.11 V 1.82 c 0,-17.59 -8.65,-29.57 -27.3,-29.57 -18.651,0 -26.99,11.98 -26.99,29.57 v 61.721 h -24.26 V 0 c 0,-31.39 20.01,-50.949 51.25,-50.949 C -20.32,-50.949 0,-31.39 0,0 M 3.18,66.72 V 0 c 0,-33.06 -21.68,-54.14 -54.59,-54.14 -33.061,0 -54.441,20.93 -54.441,54.14 v 66.72 h 30.63 V 1.82 c 0,-15.769 6.981,-26.389 23.811,-26.389 16.83,0 24.11,10.469 24.11,26.389 v 64.9 z" /></g><g
                 id="g86"
                 transform="translate(1168.7402,155.9302)"><path
                   id="path84"
                   style="fill:#ffffff;fill-opacity:1;fill-rule:nonzero;stroke:none"
                   d="m 0,0 v -63.541 c 0,-31.389 -20.32,-50.949 -51.41,-50.949 -31.24,0 -51.25,19.56 -51.25,50.949 V 0 h 24.26 v -61.72 c 0,-17.59 8.339,-29.571 26.99,-29.571 18.65,0 27.3,11.981 27.3,29.571 l 0,61.72 z" /></g><g
                 id="g90"
                 transform="translate(971.75,70.5498)"><path
                   id="path88"
                   style="fill:#ffffff;fill-opacity:1;fill-rule:nonzero;stroke:none"
                   d="M 0,0 C 26.54,0 43.37,16.53 43.37,43.07 43.37,69.3 25.78,85.38 0,85.38 H -49.13 V -26.84 h 24.26 V 0 Z M 46.56,43.07 C 46.56,14.71 28.21,-3.18 0,-3.18 H -21.68 V -30.02 H -52.31 V 88.56 H 0 c 27.45,0 46.56,-17.59 46.56,-45.49" /></g><g
                 id="g94"
                 transform="translate(970.0801,92.0898)"><path
                   id="path92"
                   style="fill:#ffffff;fill-opacity:1;fill-rule:nonzero;stroke:none"
                   d="M 0,0 C 13.65,0 20.479,8.18 20.479,21.38 20.479,34.12 12.74,42.3 0,42.3 H -23.2 V 0 Z M 45.04,21.53 C 45.04,-5.01 28.21,-21.54 1.67,-21.54 H -23.2 V -48.38 H -47.46 V 63.84 H 1.67 c 25.78,0 43.37,-16.08 43.37,-42.31" /></g><g
                 id="g98"
                 transform="translate(970.0801,95.2695)"><path
                   id="path96"
                   style="fill:#ffffff;fill-opacity:1;fill-rule:nonzero;stroke:none"
                   d="M 0,0 C 11.68,0 17.29,6.82 17.29,18.201 17.29,29.121 11.08,35.94 0,35.94 H -20.01 V 0 Z M 20.479,18.201 C 20.479,5 13.65,-3.18 0,-3.18 H -23.2 V 39.121 H 0 c 12.74,0 20.479,-8.181 20.479,-20.92" /></g><g
                 id="g102"
                 transform="translate(815.5601,43.71)"><path
                   id="path100"
                   style="fill:#ffffff;fill-opacity:1;fill-rule:nonzero;stroke:none"
                   d="M 0,0 C 33.66,0 52.92,23.51 52.92,56.11 52.92,88.56 33.51,112.22 0,112.22 H -51.86 V 0 Z M 56.11,56.11 C 56.11,21.69 35.48,-3.18 0,-3.18 H -55.05 V 115.4 H 0 c 35.33,0 56.11,-25.02 56.11,-59.29" /></g><g
                 id="g106"
                 transform="translate(813.4399,66.9102)"><path
                   id="path104"
                   style="fill:#ffffff;fill-opacity:1;fill-rule:nonzero;stroke:none"
                   d="m 0,0 c 20.01,0 30.48,13.96 30.48,33.06 0,19.11 -10.77,32.6 -30.64,32.6 H -25.48 V 0 Z M 55.04,32.91 C 55.04,0.31 35.78,-23.2 2.12,-23.2 H -49.74 V 89.02 H 2.12 c 33.51,0 52.92,-23.66 52.92,-56.11" /></g><g
                 id="g110"
                 transform="translate(813.2798,70.0996)"><path
                   id="path108"
                   style="fill:#ffffff;fill-opacity:1;fill-rule:nonzero;stroke:none"
                   d="M 0,0 C 18.2,0 27.45,12.28 27.45,29.72 27.45,47.01 18.05,59.291 0,59.291 H -22.13 V 0 Z m 30.64,29.871 c 0,-19.1 -10.47,-33.06 -30.48,-33.06 H -25.32 V 62.47 H 0 c 19.87,0 30.64,-13.49 30.64,-32.599" /></g><g
                 id="g114"
                 transform="translate(704.5601,43.71)"><path
                   id="path112"
                   style="fill:#ffffff;fill-opacity:1;fill-rule:nonzero;stroke:none"
                   d="M 0,0 V 112.22 H -24.12 V 40.49 l -57.32,71.73 h -21.23 V 0 H -78.4 V 71.58 L -21.08,0 Z M 3.18,115.4 V -3.18 H -22.75 L -75.22,62.48 V -3.18 h -30.63 V 115.4 h 25.93 L -27.3,49.59 v 65.81 z" /></g><g
                 id="g118"
                 transform="translate(704.5601,155.9302)"><path
                   id="path116"
                   style="fill:#ffffff;fill-opacity:1;fill-rule:nonzero;stroke:none"
                   d="m 0,0 v -112.22 h -21.08 l -57.32,71.58 v -71.58 h -24.27 V 0 h 21.23 l 57.32,-71.73 V 0 Z" /></g><g
                 id="g122"
                 transform="translate(546.2402,43.71)"><path
                   id="path120"
                   style="fill:#ffffff;fill-opacity:1;fill-rule:nonzero;stroke:none"
                   d="m 0,0 v 23.2 h -60.51 v 21.23 h 49.74 V 65.81 H -60.51 V 88.86 H 0 v 23.36 H -84.77 V 0 Z M 3.18,26.39 V -3.18 H -87.95 V 115.4 H 3.18 V 85.68 h -60.5 V 69 H -7.58 V 41.25 H -57.32 V 26.39 Z" /></g><g
                 id="g126"
                 transform="translate(546.2402,66.9102)"><path
                   id="path124"
                   style="fill:#ffffff;fill-opacity:1;fill-rule:nonzero;stroke:none"
                   d="M 0,0 V -23.2 H -84.77 V 89.02 H 0 V 65.66 H -60.51 V 42.61 h 49.74 V 21.229 H -60.51 V 0 Z" /></g><g
                 id="g130"
                 transform="translate(409.6099,132.5698)"><path
                   id="path128"
                   style="fill:#ffffff;fill-opacity:1;fill-rule:nonzero;stroke:none"
                   d="M 0,0 V 23.36 H -97.96 V 0 h 36.85 v -88.86 h 24.26 V 0 Z M 3.18,26.54 V -3.18 H -33.67 V -92.04 H -64.3 v 88.86 h -36.85 v 29.72 z" /></g><g
                 id="g134"
                 transform="translate(409.6099,155.9302)"><path
                   id="path132"
                   style="fill:#ffffff;fill-opacity:1;fill-rule:nonzero;stroke:none"
                   d="m 0,0 v -23.36 h -36.85 v -88.86 h -24.26 v 88.86 H -97.96 V 0 Z" /></g><g
                 id="g138"
                 transform="translate(266.7598,43.71)"><path
                   id="path136"
                   style="fill:#ffffff;fill-opacity:1;fill-rule:nonzero;stroke:none"
                   d="m 0,0 -38.52,56.41 37.61,55.81 h -28.51 l -23.66,-34.73 -23.65,34.73 h -28.36 L -67.48,56.41 -106,0 h 29.42 L -53.08,34.88 -29.42,0 Z M -34.73,56.41 6.06,-3.18 h -37.3 l -21.84,32.3 -21.83,-32.3 h -37.16 l 40.8,59.59 -39.89,58.99 h 36.09 l 21.99,-32.15 21.99,32.15 H 5.15 Z" /></g><g
                 id="g142"
                 transform="translate(228.2402,100.1201)"><path
                   id="path140"
                   style="fill:#ffffff;fill-opacity:1;fill-rule:nonzero;stroke:none"
                   d="M 0,0 38.52,-56.41 H 9.1 l -23.66,34.88 -23.5,-34.88 H -67.48 L -28.96,0 -66.57,55.81 h 28.36 L -14.56,21.08 9.1,55.81 h 28.51 z" /></g><g
                 id="g146"
                 transform="translate(111.9302,43.71)"><path
                   id="path144"
                   style="fill:#ffffff;fill-opacity:1;fill-rule:nonzero;stroke:none"
                   d="m 0,0 v 23.2 h -60.51 v 21.23 h 49.74 V 65.81 H -60.51 V 88.86 H 0 v 23.36 H -84.77 V 0 Z M 3.18,26.39 V -3.18 H -87.95 V 115.4 H 3.18 V 85.68 h -60.5 V 69 H -7.58 V 41.25 H -57.32 V 26.39 Z" /></g><g
                 id="g150"
                 transform="translate(111.9302,66.9102)"><path
                   id="path148"
                   style="fill:#ffffff;fill-opacity:1;fill-rule:nonzero;stroke:none"
                   d="M 0,0 V -23.2 H -84.77 V 89.02 H 0 V 65.66 H -60.51 V 42.61 h 49.74 V 21.229 H -60.51 V 0 Z" /></g></g></g></g></g></g><g
       transform="translate(156,159)"
       id="g156"><path
         id="path158"
         style="fill:#d10000;fill-opacity:1;fill-rule:nonzero;stroke:none"
         d="M 0,0 39,-59 -1,-118 H 36 L 76,-59 36,0 Z" /></g></g></svg>