<svg xmlns="http://www.w3.org/2000/svg" viewBox="0 0 2560 266.667"><defs><clipPath id="a" clipPathUnits="userSpaceOnUse"><path d="M0 200h1920V0H0z"/></clipPath><clipPath id="b" clipPathUnits="userSpaceOnUse"><path d="M23.98 161.39h1865.07V37.95H23.98z"/></clipPath></defs><g clip-path="url(#a)" transform="matrix(1.33333 0 0 -1.33333 0 266.667)"><g clip-path="url(#b)"><path fill="#d10000" d="M1885.87 43.71v62.93h-50.96v-19.1h28.66v-7.28l-.6-.76c-6.98-9.25-15.77-14.86-27.75-14.86-19.41 0-35.18 15.77-35.18 35.18s15.77 35.18 35.18 35.18c9.7 0 19.26-3.94 25.78-11.22l19.86 13.34c-11.37 13.2-28.2 21.08-45.64 21.08-32.3 0-59.75-25.78-59.75-58.38s27.45-58.38 59.75-58.38c9.4 0 23.96 3.03 30.33 16.68h2.57V43.71zm3.18 66.12v-69.3h-24.11v10.76c-6.37-9.4-18.8-13.04-29.72-13.04-33.97 0-62.93 27.15-62.93 61.57s28.96 61.57 62.93 61.57c19.56 0 38.36-9.25 50.19-24.72v-.15l-24.87-16.83h-.15c-6.22 7.73-15.32 12.13-25.17 12.13-17.74 0-32-14.26-32-32 0-17.89 14.1-32 32-32 10.16 0 19.41 5.01 25.17 13.35v3.18h-28.66v25.48z"/><path fill="#d10000" d="M1885.87 106.64V43.71h-17.75v14.41h-2.57c-6.37-13.65-20.93-16.68-30.33-16.68-32.3 0-59.75 25.78-59.75 58.38s27.45 58.38 59.75 58.38c17.44 0 34.27-7.88 45.64-21.08L1861 123.78c-6.52 7.28-16.08 11.22-25.78 11.22-19.41 0-35.18-15.77-35.18-35.18s15.77-35.18 35.18-35.18c11.98 0 20.77 5.61 27.75 14.86l.6.76v7.28h-28.66v19.1zm-160.44-62.93l-24.27 33.97 3.34 1.52c14.56 6.82 21.53 20.92 21.53 36.54 0 25.48-16.22 40.19-41.24 40.19h-54.75V43.71h24.12v31.7h20.01l22.45-31.7zm-19.56 32.76l25.77-35.94h-36.69l-22.45 31.69h-15.16V40.53h-30.48v118.58h57.93c26.84 0 44.43-16.22 44.43-43.37 0-16.83-7.58-32.15-23.35-39.27"/><path fill="#d10000" d="M1702.83 115.44c0 12.43-7.58 18.95-19.71 18.95h-28.96v-37.6h28.96c11.68 0 19.71 6.67 19.71 18.65m-1.67-37.76l24.27-33.97h-28.81l-22.45 31.7h-20.01v-31.7h-24.12v112.22h54.75c25.02 0 41.24-14.71 41.24-40.19 0-15.62-6.97-29.72-21.53-36.54z"/><path fill="#d10000" d="M1699.65 115.44c0 10.61-6.22 15.77-16.53 15.77h-25.78V99.97h25.78c9.86 0 16.53 5.31 16.53 15.47m-16.53 18.95c12.13 0 19.71-6.52 19.71-18.95 0-11.98-8.03-18.65-19.71-18.65h-28.96v37.6zm-106.61-34.57c0 32.75-27.45 58.38-59.75 58.38-31.99 0-59.74-25.93-59.74-58.38s27.75-58.38 59.74-58.38c32.3 0 59.75 25.63 59.75 58.38m-59.75 61.57c34.12 0 62.94-27.15 62.94-61.57s-28.82-61.57-62.94-61.57c-33.96 0-62.93 27.3-62.93 61.57 0 34.27 28.97 61.57 62.93 61.57"/><path fill="#d10000" d="M1517.52 64.64c19.41 0 34.43 16.23 34.43 35.33 0 19.56-15.62 35.03-35.19 35.03-19.41 0-35.18-15.77-35.18-35.18 0-20.17 16.08-35.18 35.94-35.18m-.76 93.56c32.3 0 59.75-25.63 59.75-58.38s-27.45-58.38-59.75-58.38c-31.99 0-59.74 25.93-59.74 58.38s27.75 58.38 59.74 58.38"/><path fill="#d10000" d="M1548.76 99.82c0 17.89-14.1 32-32 32a31.906 31.906 0 01-31.99-32c0-17.74 14.25-32 31.99-32 17.9 0 32 14.11 32 32m3.19.15c0-19.1-15.02-35.33-34.43-35.33-19.86 0-35.94 15.01-35.94 35.18 0 19.41 15.77 35.18 35.18 35.18 19.57 0 35.19-15.47 35.19-35.03m-142.7-42.76c0 8.79-7.28 16.07-16.08 16.07-8.79 0-16.07-7.28-16.07-16.07 0-8.8 7.28-16.08 16.07-16.08 8.8 0 16.08 7.28 16.08 16.08m-16.08 19.26c10.62 0 19.26-8.65 19.26-19.26 0-10.62-8.64-19.26-19.26-19.26-10.61 0-19.25 8.64-19.25 19.26 0 10.61 8.64 19.26 19.25 19.26"/><path fill="#d10000" d="M1393.17 73.28c8.8 0 16.08-7.28 16.08-16.07 0-8.8-7.28-16.08-16.08-16.08-8.79 0-16.07 7.28-16.07 16.08 0 8.79 7.28 16.07 16.07 16.07"/><path fill="#fff" d="M1329.48 43.71l-45.34 112.22h-25.93l-45.34-112.22h26.38l6.53 17.29h50.8l6.52-17.29zm-43.06 115.4l47.76-118.58h-33.36l-6.52 17.29h-46.25l-6.52-17.29h-33.51l48.07 118.43v.15z"/><path fill="#fff" d="M1288.54 82.38l-17.29 46.4-17.44-46.4zm-4.4 73.55l45.34-112.22h-26.38L1296.58 61h-50.8l-6.53-17.29h-26.38l45.34 112.22z"/><path fill="#fff" d="M1283.99 85.57l-12.74 34.12-12.89-34.12zm-12.74 43.21l17.29-46.4h-34.73zm-102.51-36.39v63.54h-24.11V94.21c0-17.59-8.65-29.57-27.3-29.57s-26.99 11.98-26.99 29.57v61.72h-24.26V92.39c0-31.39 20.01-50.95 51.25-50.95 31.09 0 51.41 19.56 51.41 50.95m3.18 66.72V92.39c0-33.06-21.68-54.14-54.59-54.14-33.06 0-54.44 20.93-54.44 54.14v66.72h30.63v-64.9c0-15.77 6.98-26.39 23.81-26.39s24.11 10.47 24.11 26.39v64.9z"/><path fill="#fff" d="M1168.74 155.93V92.39c0-31.39-20.32-50.95-51.41-50.95-31.24 0-51.25 19.56-51.25 50.95v63.54h24.26V94.21c0-17.59 8.34-29.57 26.99-29.57s27.3 11.98 27.3 29.57v61.72zM971.75 70.55c26.54 0 43.37 16.53 43.37 43.07 0 26.23-17.59 42.31-43.37 42.31h-49.13V43.71h24.26v26.84zm46.56 43.07c0-28.36-18.35-46.25-46.56-46.25h-21.68V40.53h-30.63v118.58h52.31c27.45 0 46.56-17.59 46.56-45.49"/><path fill="#fff" d="M970.08 92.09c13.65 0 20.48 8.18 20.48 21.38 0 12.74-7.74 20.92-20.48 20.92h-23.2v-42.3zm45.04 21.53c0-26.54-16.83-43.07-43.37-43.07h-24.87V43.71h-24.26v112.22h49.13c25.78 0 43.37-16.08 43.37-42.31"/><path fill="#fff" d="M970.08 95.27c11.68 0 17.29 6.82 17.29 18.2 0 10.92-6.21 17.74-17.29 17.74h-20.01V95.27zm20.48 18.2c0-13.2-6.83-21.38-20.48-21.38h-23.2v42.3h23.2c12.74 0 20.48-8.18 20.48-20.92m-175-69.76c33.66 0 52.92 23.51 52.92 56.11 0 32.45-19.41 56.11-52.92 56.11H763.7V43.71zm56.11 56.11c0-34.42-20.63-59.29-56.11-59.29h-55.05v118.58h55.05c35.33 0 56.11-25.02 56.11-59.29"/><path fill="#fff" d="M813.44 66.91c20.01 0 30.48 13.96 30.48 33.06 0 19.11-10.77 32.6-30.64 32.6h-25.32V66.91zm55.04 32.91c0-32.6-19.26-56.11-52.92-56.11H763.7v112.22h51.86c33.51 0 52.92-23.66 52.92-56.11"/><path fill="#fff" d="M813.28 70.1c18.2 0 27.45 12.28 27.45 29.72 0 17.29-9.4 29.57-27.45 29.57h-22.13V70.1zm30.64 29.87c0-19.1-10.47-33.06-30.48-33.06h-25.48v65.66h25.32c19.87 0 30.64-13.49 30.64-32.6M704.56 43.71v112.22h-24.12V84.2l-57.32 71.73h-21.23V43.71h24.27v71.58l57.32-71.58zm3.18 115.4V40.53h-25.93l-52.47 65.66V40.53h-30.63v118.58h25.93l52.62-65.81v65.81z"/><path fill="#fff" d="M704.56 155.93V43.71h-21.08l-57.32 71.58V43.71h-24.27v112.22h21.23l57.32-71.73v71.73zM546.24 43.71v23.2h-60.51v21.23h49.74v21.38h-49.74v23.05h60.51v23.36h-84.77V43.71zm3.18 26.39V40.53h-91.13v118.58h91.13v-29.72h-60.5v-16.68h49.74V84.96h-49.74V70.1z"/><path fill="#fff" d="M546.24 66.91v-23.2h-84.77v112.22h84.77v-23.36h-60.51v-23.05h49.74V88.14h-49.74V66.91zm-136.63 65.66v23.36h-97.96v-23.36h36.85V43.71h24.26v88.86zm3.18 26.54v-29.72h-36.85V40.53h-30.63v88.86h-36.85v29.72z"/><path fill="#fff" d="M409.61 155.93v-23.36h-36.85V43.71H348.5v88.86h-36.85v23.36zM266.76 43.71l-38.52 56.41 37.61 55.81h-28.51l-23.66-34.73-23.65 34.73h-28.36l37.61-55.81-38.52-56.41h29.42l23.5 34.88 23.66-34.88zm-34.73 56.41l40.79-59.59h-37.3l-21.84 32.3-21.83-32.3h-37.16l40.8 59.59-39.89 58.99h36.09l21.99-32.15 21.99 32.15h36.24z"/><path fill="#fff" d="M228.24 100.12l38.52-56.41h-29.42l-23.66 34.88-23.5-34.88h-29.42l38.52 56.41-37.61 55.81h28.36l23.65-34.73 23.66 34.73h28.51zM111.93 43.71v23.2H51.42v21.23h49.74v21.38H51.42v23.05h60.51v23.36H27.16V43.71zm3.18 26.39V40.53H23.98v118.58h91.13v-29.72h-60.5v-16.68h49.74V84.96H54.61V70.1z"/><path fill="#fff" d="M111.93 66.91v-23.2H27.16v112.22h84.77v-23.36H51.42v-23.05h49.74V88.14H51.42V66.91z"/></g></g><path fill="#d10000" d="M208 54.667l52 78.666L206.667 212H256l53.333-78.667L256 54.667z"/></svg>